<svg width="90" height="60" viewBox="0 0 90 60" fill="none" xmlns="http://www.w3.org/2000/svg">
<g filter="url(#filter0_d)">
<path d="M84.6664 24.0056C83.8139 22.987 82.651 22.3251 81.3179 22.0776L80.6917 13.5574C81.3094 13.5515 81.8362 13.1054 81.9438 12.4942L82.1853 11.1213C82.4441 9.64958 82.0831 8.19685 81.1947 7.13571C80.3075 6.0757 79.0084 5.49175 77.5368 5.49175H68.1109L68.5698 2.88347C68.7 2.14266 68.5113 1.40296 68.0523 0.854493C67.5978 0.311484 66.9144 0 66.1773 0H19.7792C18.4072 0 17.1442 1.07012 16.9038 2.43664L12.7988 25.7766C12.6758 26.4766 13.142 27.1442 13.8403 27.2675C13.9156 27.2809 13.9906 27.2873 14.0647 27.2873C14.676 27.2873 15.2178 26.8478 15.3275 26.2234L19.4327 2.88347C19.4597 2.72982 19.657 2.57408 19.7791 2.57408L66.0166 2.57424L61.9356 25.7766C61.8124 26.4766 62.2787 27.1442 62.9771 27.2675C63.6746 27.3907 64.3413 26.9235 64.4643 26.2234L64.7603 24.5409H80.1138C80.1143 24.5409 80.115 24.5409 80.1156 24.5409C80.1162 24.5409 80.1169 24.5409 80.1174 24.5409C81.1786 24.5411 82.0954 24.9385 82.6994 25.6599C83.115 26.1565 83.3575 26.7746 83.4158 27.4584H79.151C78.5278 27.4584 77.9948 27.9069 77.8865 28.5221L77.4037 31.268C77.2091 32.3743 77.4839 33.4704 78.1575 34.2753C78.8219 35.0692 79.8304 35.5244 80.9241 35.5244H82.1329L81.1368 41.1878H77.747C77.5239 40.0551 77.0356 39.0132 76.2955 38.1293C74.9824 36.5602 73.05 35.6962 70.8547 35.6962C67.3346 35.6962 63.9385 38.0051 62.3486 41.188H61.8325L63.4986 31.7152C63.6216 31.0151 63.1555 30.3475 62.4571 30.2242C61.7591 30.1006 61.0929 30.5681 60.9699 31.2683L59.2251 41.1881H35.4576C35.2345 40.0554 34.7462 39.0137 34.0061 38.1297C32.6928 36.5605 30.7605 35.6965 28.5651 35.6965C25.045 35.6965 21.6489 38.0054 20.059 41.1883L12.6954 41.1881L13.2085 38.2708H18.9788C19.6878 38.2708 20.2628 37.6945 20.2628 36.9836C20.2628 36.2728 19.688 35.6964 18.9788 35.6964H5.28397C4.57496 35.6964 4 36.2726 4 36.9836C4 37.6944 4.5748 38.2708 5.28397 38.2708H10.6013L10.1425 40.8791C10.0123 41.6199 10.2009 42.3596 10.6599 42.908C11.1145 43.451 11.7979 43.7625 12.5349 43.7625H19.2253C18.8772 45.946 19.4003 48.0029 20.7096 49.5669C22.0229 51.136 23.9552 52 26.1506 52C30.5203 52 34.7009 48.4435 35.4698 44.0716C35.4879 43.968 35.5021 43.8651 35.5165 43.7624H61.5149C61.1667 45.9456 61.6898 48.0026 62.9992 49.5667C64.3125 51.1359 66.2448 51.9998 68.4402 51.9998C72.8099 51.9998 76.9905 48.4433 77.7594 44.0714C77.7775 43.9679 77.7917 43.865 77.8061 43.7622H82.2144C82.8376 43.7622 83.3706 43.3138 83.4789 42.6985L85.8937 28.9691C86.2214 27.1055 85.7856 25.3428 84.6664 24.0056ZM65.2134 21.9672L66.6924 13.5579H78.1173L78.7354 21.9672H65.2134ZM79.6564 10.6744L79.602 10.9837H67.145L67.6582 8.06615H77.5368C78.2362 8.06615 78.8367 8.32337 79.2275 8.79043C79.6327 9.27435 79.7852 9.94324 79.6564 10.6744ZM32.9411 43.6249C32.3786 46.8237 29.3323 49.4259 26.1506 49.4259C24.7274 49.4259 23.4936 48.8884 22.6766 47.9125C21.8361 46.9082 21.5158 45.5444 21.7748 44.0721C22.3374 40.8733 25.3836 38.2711 28.5653 38.2711C29.9884 38.2711 31.2223 38.8087 32.0392 39.7847C32.8797 40.7887 33.2 42.1526 32.9411 43.6249ZM75.2305 43.6249C74.6679 46.8237 71.6217 49.4259 68.44 49.4259C67.0169 49.4259 65.783 48.8884 64.9661 47.9123C64.1256 46.908 63.8053 45.5443 64.0642 44.0719C64.6267 40.8731 67.673 38.2709 70.8547 38.2709C72.2777 38.2709 73.5117 38.8085 74.3287 39.7845C75.1692 40.7887 75.4895 42.1526 75.2305 43.6249ZM82.5857 32.9508H80.9241V32.9507C80.5815 32.9507 80.3051 32.8367 80.1246 32.6212C79.9373 32.3974 79.869 32.0758 79.9324 31.7156L80.2283 30.0335H83.0988L82.5857 32.9508Z" fill="#AE7C78"/>
<path d="M29.4748 42.0427C29.0202 41.4997 28.3368 41.1882 27.5996 41.1882C26.2276 41.1882 24.9646 42.2584 24.7242 43.6249C24.594 44.3657 24.7827 45.1054 25.2417 45.6539C25.6962 46.1969 26.3796 46.5083 27.1166 46.5083C28.4887 46.5083 29.7517 45.4381 29.9921 44.0719C30.1224 43.3309 29.9339 42.5914 29.4748 42.0427Z" fill="#AE7C78"/>
<path d="M71.7637 42.0427C71.309 41.4997 70.6256 41.1882 69.8888 41.1882C68.5167 41.1882 67.2537 42.2584 67.0135 43.6247C66.8833 44.3657 67.0716 45.1052 67.5308 45.6539C67.9853 46.1969 68.6687 46.5083 69.4057 46.5083C70.7778 46.5083 72.0408 45.4381 72.2812 44.0719C72.4116 43.3309 72.2229 42.5914 71.7637 42.0427Z" fill="#AE7C78"/>
<path d="M55.7904 35.6965H39.5212C38.8122 35.6965 38.2372 36.2728 38.2372 36.9837C38.2372 37.6945 38.812 38.2709 39.5212 38.2709H55.7904C56.4994 38.2709 57.0744 37.6947 57.0744 36.9837C57.0742 36.2728 56.4994 35.6965 55.7904 35.6965Z" fill="#AE7C78"/>
<path d="M32.6739 30.2048H8.98899C8.27998 30.2048 7.70502 30.7811 7.70502 31.492C7.70502 32.2028 8.27966 32.7792 8.98899 32.7792H32.6739C33.3829 32.7792 33.9578 32.203 33.9578 31.492C33.9578 30.7811 33.383 30.2048 32.6739 30.2048Z" fill="#AE7C78"/>
<path d="M57.1922 25.0263L52.4387 20.9075C51.9022 20.4429 51.0915 20.5018 50.6277 21.0397C50.1639 21.5775 50.223 22.3903 50.7595 22.8553L52.9036 24.7132H20.3482C19.6392 24.7132 19.0642 25.2895 19.0642 26.0004C19.0642 26.7112 19.639 27.2876 20.3482 27.2876H52.0894L49.4412 29.0464C48.8499 29.4388 48.6883 30.2376 49.0799 30.8302C49.3269 31.2042 49.7353 31.4066 50.1514 31.4066C50.3948 31.4066 50.6411 31.3373 50.8593 31.1923L57.0616 27.0735C57.3967 26.8513 57.6082 26.4845 57.6339 26.0825C57.6595 25.6803 57.4961 25.2895 57.1922 25.0263Z" fill="#AE7C78"/>
</g>
<defs>
<filter id="filter0_d" x="0" y="0" width="90" height="60" filterUnits="userSpaceOnUse" color-interpolation-filters="sRGB">
<feFlood flood-opacity="0" result="BackgroundImageFix"/>
<feColorMatrix in="SourceAlpha" type="matrix" values="0 0 0 0 0 0 0 0 0 0 0 0 0 0 0 0 0 0 127 0" result="hardAlpha"/>
<feOffset dy="4"/>
<feGaussianBlur stdDeviation="2"/>
<feComposite in2="hardAlpha" operator="out"/>
<feColorMatrix type="matrix" values="0 0 0 0 0 0 0 0 0 0 0 0 0 0 0 0 0 0 0.25 0"/>
<feBlend mode="normal" in2="BackgroundImageFix" result="effect1_dropShadow"/>
<feBlend mode="normal" in="SourceGraphic" in2="effect1_dropShadow" result="shape"/>
</filter>
</defs>
</svg>
